<svg xmlns="http://www.w3.org/2000/svg" viewBox="0 0 48 48">
  <rect width="48" height="48" rx="10" fill="#FEE500"/>
  <g transform="translate(5, 7)">
    <!-- 뒤쪽 큰 말풍선 (어두운색) -->
    <path d="M15 2C7.82 2 2 6.92 2 13c0 3.88 2.56 7.27 6.36 9.18-.28 1.04-1.02 3.76-1.04 4 0 0-.02.18.09.25.11.07.24.03.24.03.33-.05 3.8-2.48 4.4-2.9.94.14 1.92.21 2.95.21 7.18 0 13-4.92 13-11S22.18 2 15 2z" fill="#3C1E1E"/>
    <!-- 앞쪽 작은 말풍선 (어두운색, 약간 밝게) -->
    <path d="M26 12c-5.52 0-10 3.8-10 8.5s4.48 8.5 10 8.5c.76 0 1.5-.06 2.22-.18.44.32 3.04 2.14 3.3 2.18 0 0 .1.03.18-.02.08-.05.07-.19.07-.19-.02-.18-.57-2.22-.78-3 2.84-1.44 4.24-4 4.24-6.88C35.23 15.8 31.52 12 26 12z" fill="#3C1E1E" opacity="0.7"/>
  </g>
</svg>
