<svg xmlns="http://www.w3.org/2000/svg" viewBox="0 0 128 128">
  <rect width="128" height="128" rx="28" fill="#FEE500"/>
  <!-- 뒤쪽 큰 말풍선 (왼쪽) -->
  <path d="M58 32C39.2 32 24 44.5 24 60c0 9.8 6.2 18.4 15.6 23.4l-3.2 11.6c-.2.7.6 1.2 1.2.8l13.4-8.6c2.2.3 4.4.5 6.7.5 18.8 0 34-12.5 34-28S76.8 32 58 32z" fill="#3D3D3D"/>
  <!-- 앞쪽 작은 말풍선 (오른쪽) -->
  <path d="M78 52c-14.4 0-26 9.6-26 21.5S63.6 95 78 95c1.7 0 3.4-.2 5-.5l10 6.4c.5.3 1.1-.1.9-.6l-2.4-8.7C98 87.8 104 80.8 104 73.5 104 61.6 92.4 52 78 52z" fill="#3D3D3D" opacity="0.65"/>
</svg>
